<svg width="24" height="24" viewBox="0 0 24 24" fill="none" xmlns="http://www.w3.org/2000/svg">
<rect width="24" height="24" fill="#FCF2C7"/>
<path d="M8.028 5.16C8.84933 5.16 9.48 5.248 9.92 5.424C10.36 5.6 10.7413 5.79067 11.064 5.996C11.24 6.09867 11.3793 6.17933 11.482 6.238C11.5993 6.282 11.7093 6.304 11.812 6.304C12.0467 6.304 12.208 5.98133 12.296 5.336H12.802C12.7873 5.61467 12.7653 5.93733 12.736 6.304C12.7213 6.67067 12.7067 7.162 12.692 7.778C12.692 8.37933 12.692 9.17867 12.692 10.176H12.186C12.142 9.428 11.9733 8.70933 11.68 8.02C11.4013 7.33067 10.998 6.766 10.47 6.326C9.95667 5.87133 9.29667 5.644 8.49 5.644C7.77133 5.644 7.17 5.85667 6.686 6.282C6.21667 6.70733 5.982 7.27933 5.982 7.998C5.982 8.614 6.136 9.13467 6.444 9.56C6.752 9.97067 7.18467 10.374 7.742 10.77C8.314 11.1513 8.98867 11.5913 9.766 12.09C10.4847 12.5593 11.13 13.0287 11.702 13.498C12.274 13.9527 12.7213 14.4587 13.044 15.016C13.3813 15.5733 13.55 16.2553 13.55 17.062C13.55 18.0153 13.3153 18.8073 12.846 19.438C12.3767 20.0687 11.746 20.538 10.954 20.846C10.162 21.154 9.29667 21.308 8.358 21.308C7.49267 21.308 6.80333 21.22 6.29 21.044C5.79133 20.868 5.35867 20.6847 4.992 20.494C4.66933 20.2887 4.42 20.186 4.244 20.186C4.00933 20.186 3.848 20.5087 3.76 21.154H3.254C3.28333 20.8167 3.298 20.4207 3.298 19.966C3.31267 19.5113 3.32 18.9247 3.32 18.206C3.33467 17.4727 3.342 16.5487 3.342 15.434H3.848C3.90667 16.3727 4.068 17.2527 4.332 18.074C4.61067 18.8807 5.02867 19.5333 5.586 20.032C6.158 20.5307 6.91333 20.78 7.852 20.78C8.61467 20.78 9.26733 20.5673 9.81 20.142C10.3527 19.702 10.624 19.042 10.624 18.162C10.624 17.2673 10.316 16.5193 9.7 15.918C9.084 15.3167 8.27733 14.708 7.28 14.092C6.59067 13.652 5.94533 13.2047 5.344 12.75C4.74267 12.2953 4.25867 11.782 3.892 11.21C3.54 10.6233 3.364 9.91933 3.364 9.098C3.364 8.18867 3.584 7.448 4.024 6.876C4.464 6.28933 5.036 5.85667 5.74 5.578C6.45867 5.29933 7.22133 5.16 8.028 5.16ZM17.4294 18.096C17.9281 18.096 18.3387 18.2427 18.6614 18.536C18.9841 18.8293 19.1454 19.218 19.1454 19.702C19.1454 20.186 18.9841 20.5747 18.6614 20.868C18.3387 21.1613 17.9281 21.308 17.4294 21.308C16.9161 21.308 16.4981 21.1613 16.1754 20.868C15.8674 20.5747 15.7134 20.186 15.7134 19.702C15.7134 19.218 15.8674 18.8293 16.1754 18.536C16.4981 18.2427 16.9161 18.096 17.4294 18.096Z" fill="#9F4452"/>
</svg>
